<?xml version="1.0" encoding="UTF-8" standalone="no"?>
<!-- Created with Inkscape (http://www.inkscape.org/) -->

<svg
   width="64"
   height="64"
   viewBox="0 0 16.933333 16.933333"
   version="1.1"
   id="svg1"
   xml:space="preserve"
   inkscape:version="1.3.2 (1:1.3.2+202311252150+091e20ef0f)"
   sodipodi:docname="shroudstone.svg"
   xmlns:inkscape="http://www.inkscape.org/namespaces/inkscape"
   xmlns:sodipodi="http://sodipodi.sourceforge.net/DTD/sodipodi-0.dtd"
   xmlns="http://www.w3.org/2000/svg"
   xmlns:svg="http://www.w3.org/2000/svg"><sodipodi:namedview
     id="namedview1"
     pagecolor="#ffffff"
     bordercolor="#666666"
     borderopacity="1.0"
     inkscape:showpageshadow="2"
     inkscape:pageopacity="0.0"
     inkscape:pagecheckerboard="0"
     inkscape:deskcolor="#d1d1d1"
     inkscape:document-units="mm"
     inkscape:zoom="2"
     inkscape:cx="33.5"
     inkscape:cy="168.75"
     inkscape:window-width="2498"
     inkscape:window-height="1413"
     inkscape:window-x="62"
     inkscape:window-y="-6"
     inkscape:window-maximized="1"
     inkscape:current-layer="layer1" /><defs
     id="defs1"><filter
       inkscape:collect="always"
       style="color-interpolation-filters:sRGB"
       id="filter5"
       x="-0.057820011"
       y="-0.041049331"
       width="1.11564"
       height="1.0820987"><feGaussianBlur
         inkscape:collect="always"
         stdDeviation="1.0187727"
         id="feGaussianBlur5" /></filter></defs><g
     inkscape:label="Layer 1"
     inkscape:groupmode="layer"
     id="layer1"><rect
       style="fill:none;stroke:#ff0000;stroke-width:1;stroke-dasharray:none;stroke-opacity:1"
       id="rect1"
       width="25.537603"
       height="22.450642"
       x="108.41788"
       y="103.92776" /><rect
       style="fill:none;stroke:#ff0000;stroke-width:1.01216;stroke-dasharray:none;stroke-opacity:1"
       id="rect2"
       width="27.101562"
       height="27.101562"
       x="156.63979"
       y="1.3034554"
       transform="matrix(0.78015666,0.62558419,-0.78015666,0.62558419,0,0)" /><path
       style="fill:none;stroke:#000000;stroke-width:0.264583px;stroke-linecap:butt;stroke-linejoin:miter;stroke-opacity:1"
       d="m 114.87244,108.04371 c 0,0 2.99342,-1.49671 3.18051,-6.92228 0.18709,-5.425577 -2.5257,-4.677221 -2.80633,-11.880137 -0.28063,-7.202914 1.12253,-7.015824 3.74177,-8.980255 2.61924,-1.96443 3.74178,-4.115951 5.8933,-5.332026 2.15151,-1.216078 3.74177,-1.777344 3.74177,-1.777344 0,0 4.30304,3.648229 4.58367,6.735194 0.28063,3.086962 3.74177,4.77076 1.77734,11.599497 -0.68699,2.388096 -2.15192,4.410099 -3.77867,6.122023 -3.02491,3.183308 -1.25153,5.294438 -1.43403,6.693548 -0.28064,2.15152 1.34724,3.76917 0.2247,8.63348 -1.12253,4.8643 -9.23073,9.8883 -13.1596,6.05298 -3.92886,-3.83532 -4.20949,-9.26089 -1.96443,-10.94468 z"
       id="path2"
       sodipodi:nodetypes="csssscssssssc" /><path
       id="rect1-1"
       style="fill:#000000;fill-opacity:1;stroke:none;stroke-width:1;stroke-dasharray:none;stroke-opacity:1"
       d="m 47.8743,106.20761 c 0,0 -1.59038,0.56107 -3.74189,1.77715 -2.15151,1.21607 -3.27394,3.36806 -5.89318,5.33249 -2.61923,1.96443 -4.02252,1.77691 -3.74189,8.97981 0.28063,7.20291 2.99312,6.45484 2.80603,11.88042 -0.002,0.0732 -0.0109,0.13803 -0.0145,0.2098 l -3.23753,2.59623 h -6.38307 v 5.11803 l -8.37468,6.71535 8.37468,6.71536 v 3.90208 h 4.86637 l 7.90288,6.33708 7.90287,-6.33708 h 4.86586 v -3.90208 l 8.37468,-6.71536 -8.37468,-6.71535 v -5.11803 h -4.17908 c -0.0926,-1.39332 -1.33838,-3.40631 1.42937,-6.319 1.62675,-1.71192 3.0916,-3.73401 3.77859,-6.12211 1.96442,-6.82873 -1.49653,-8.51233 -1.77716,-11.59929 -0.28063,-3.08696 -4.5837,-6.7355 -4.5837,-6.7355 z" /><path
       id="rect3"
       style="fill:#f9f9f9;fill-opacity:1;stroke:none;stroke-width:1;stroke-dasharray:none;stroke-opacity:1"
       d="m 39.870435,140.07827 -8.662002,8.662 8.662002,8.662 z" /><path
       id="rect3-9"
       style="fill:#f9f9f9;fill-opacity:1;stroke:none;stroke-width:1;stroke-dasharray:none;stroke-opacity:1"
       d="m 46.220433,140.07827 -8.662002,8.662 8.662002,8.662 z" /><g
       id="g1"
       transform="matrix(0.96296422,0,0,0.96369664,0.67998431,-1.2662011)"
       style="stroke-width:1.03807"><path
         id="rect1-1-2-8"
         style="opacity:1;mix-blend-mode:normal;fill:#000000;fill-opacity:0.259386;stroke:none;stroke-width:3.82087;stroke-dasharray:none;stroke-opacity:1;filter:url(#filter5)"
         d="m 70.628248,215.48039 c 0,0 -1.590382,0.56108 -3.74189,1.77716 -2.151508,1.21607 -3.273943,3.36806 -5.89318,5.33249 -2.619228,1.96443 -4.022521,1.77692 -3.741891,8.97981 0.28063,7.2029 2.99312,6.45484 2.80603,11.88041 -0.002,0.0732 -0.01087,0.13804 -0.01447,0.20981 l -3.237528,2.59622 h -6.383073 v 5.11804 l -8.374683,6.71535 8.374683,6.71535 v 3.90209 h 4.866369 l 7.902877,6.33708 7.902877,-6.33708 h 4.865853 v -3.90209 l 8.374682,-6.71535 -8.374682,-6.71535 v -5.11804 h -4.179073 c -0.0926,-1.39332 -1.338378,-3.4063 1.42937,-6.31899 1.626748,-1.71192 3.091591,-3.73401 3.77858,-6.12211 1.964418,-6.82872 -1.496522,-8.51233 -1.777152,-11.59929 -0.28063,-3.08696 -4.5837,-6.73551 -4.5837,-6.73551 z m -8.003645,33.8708 v 6.35 l 6.35,-6.35 v 17.32401 l -6.35,-6.35 v 6.35 l -8.662004,-8.662 z"
         transform="matrix(0.27127393,0,0,0.27209182,-9.0559748,-56.651272)" /><path
         id="rect1-1-2"
         style="fill:#ffffff;fill-opacity:1;stroke:#000000;stroke-width:0.274655;stroke-dasharray:none;stroke-opacity:1"
         d="m 9.6729802,1.5472381 c 0,0 -0.431429,0.15266 -1.015077,0.48355 -0.583649,0.33088 -0.888136,0.91642 -1.598666,1.45092 -0.710529,0.53451 -1.091206,0.48349 -1.015078,2.44334 0.07613,1.95985 0.811956,1.7563 0.761203,3.23256 -5.43e-4,0.0199 -0.0029,0.0375 -0.0039,0.0571 l -0.878257,0.70641 h -1.731601 v 1.3925699 l -2.271833,1.82719 2.271833,1.82719 v 1.06173 h 1.320119 l 2.143845,1.72427 2.143844,-1.72427 h 1.3199788 v -1.06173 l 2.271833,-1.82719 -2.271833,-1.82719 V 9.9211181 H 9.9857182 c -0.02512,-0.37911 -0.363067,-0.92683 0.3877508,-1.71935 0.441294,-0.4658 0.838668,-1.01599 1.02503,-1.66578 0.532895,-1.85804 -0.405967,-2.31613 -0.482095,-3.15607 -0.07613,-0.83993 -1.2434378,-1.83267 -1.2434378,-1.83267 z m -2.17118,9.2159599 v 1.72779 l 1.722589,-1.72779 v 4.71373 l -1.722589,-1.72779 v 1.72779 l -2.349776,-2.35686 z" /></g></g></svg>
